<?xml version="1.0" encoding="UTF-8" standalone="no"?>
<!-- Created with Inkscape (http://www.inkscape.org/) -->

<svg
   width="88.398582mm"
   height="88.377556mm"
   viewBox="0 0 88.398582 88.377556"
   version="1.1"
   id="svg665"
   xml:space="preserve"
   xmlns:inkscape="http://www.inkscape.org/namespaces/inkscape"
   xmlns:sodipodi="http://sodipodi.sourceforge.net/DTD/sodipodi-0.dtd"
   xmlns="http://www.w3.org/2000/svg"
   xmlns:svg="http://www.w3.org/2000/svg"><sodipodi:namedview
     id="namedview667"
     pagecolor="#505050"
     bordercolor="#eeeeee"
     borderopacity="1"
     inkscape:showpageshadow="0"
     inkscape:pageopacity="0"
     inkscape:pagecheckerboard="0"
     inkscape:deskcolor="#505050"
     inkscape:document-units="mm"
     showgrid="false" /><defs
     id="defs662" /><g
     inkscape:label="Layer 1"
     inkscape:groupmode="layer"
     id="layer1"
     transform="translate(-43.831037,-121.27436)"><path
       style="fill:#ffffff;stroke-width:0.0950172"
       d="m 58.036118,209.6116 c -1.60495,-0.0451 -2.23272,-0.10151 -2.92848,-0.26302 -2.91391,-0.67642 -5.28684,-2.02349 -7.34559,-4.16996 -1.88094,-1.96107 -3.09885,-4.27611 -3.71112,-7.05418 l -0.21989,-0.99768 v -31.64074 c 0,-30.23726 0.008,-31.67851 0.17315,-32.49244 0.56148,-2.76187 1.93397,-5.43224 3.75389,-7.3037 2.07142,-2.1301 4.4467,-3.46007 7.45656,-4.17507 l 0.87362,-0.20753 31.44694,-0.027 c 20.995922,-0.018 31.621872,0.005 31.973302,0.0695 0.90497,0.16593 1.52849,0.81039 1.59827,1.65196 0.0851,1.02561 0.52919,0.52602 -8.56513,9.63443 -5.65403,5.66277 -8.50017,8.44859 -8.76098,8.5753 -0.45711,0.22208 -1.14884,0.24357 -1.61193,0.0501 -0.18114,-0.0757 -0.81044,-0.60737 -1.39845,-1.18152 -0.58801,-0.57415 -1.111662,-1.05107 -1.163652,-1.05981 -0.052,-0.009 -0.4862,0.91846 -0.96488,2.06043 l -0.87034,2.07633 6.755162,6.76446 c 3.71535,3.72046 6.77957,6.74939 6.80938,6.73096 0.0298,-0.0184 0.95171,-0.40508 2.04863,-0.85923 1.09694,-0.45415 2.03026,-0.84764 2.07407,-0.87443 0.0438,-0.0268 -0.45314,-0.58902 -1.10432,-1.2494 -0.65118,-0.66037 -1.26207,-1.35033 -1.35751,-1.53324 -0.21955,-0.42071 -0.22959,-1.27396 -0.0196,-1.6628 0.21022,-0.38924 16.1435,-16.30102 16.53154,-16.50924 0.18362,-0.0985 0.51528,-0.16628 0.81399,-0.16628 0.91291,0 1.60718,0.54331 1.82127,1.42526 0.0741,0.3053 0.0931,6.96245 0.0665,23.27922 -0.0205,12.5684 -0.042,22.8944 -0.0478,22.94666 -0.006,0.0523 0.0147,3.14604 0.0455,6.87508 0.0587,7.11188 0.0126,8.47554 -0.34104,10.08549 -0.2524,1.14908 -0.7002,2.36488 -1.28795,3.49684 -1.93471,3.72615 -5.41105,6.42421 -9.53288,7.39868 -0.80123,0.18943 -1.34713,0.24847 -2.62672,0.28413 -2.43569,0.0679 -58.032752,0.0885 -60.383432,0.0225 z m 16.62801,-0.31101 c 0,-0.0197 -0.0603,-0.0859 -0.13407,-0.14713 -0.10266,-0.0852 -0.15062,-0.0845 -0.20471,0.003 -0.0432,0.0699 -0.0306,0.0895 0.0325,0.0506 0.0567,-0.0351 0.12999,-0.0203 0.16281,0.0328 0.0587,0.0951 0.14348,0.13089 0.14348,0.0607 z m 0.43665,-1.02399 c 0.0394,-0.0637 0.0263,-0.0841 -0.0311,-0.0486 -0.0544,0.0336 -0.14832,0.002 -0.20868,-0.0711 -0.0838,-0.10102 -0.0808,-0.14386 0.013,-0.18148 0.0781,-0.0313 0.0622,-0.052 -0.0435,-0.0567 -0.20791,-0.009 -0.21039,0.0713 -0.009,0.29383 0.18537,0.20483 0.19152,0.20624 0.27939,0.0641 z m 2.8285,-1.64758 c -0.03,-0.0781 -0.0928,-0.11832 -0.13954,-0.0894 -0.0468,0.0289 -0.0851,0 -0.0851,-0.0639 0,-0.0641 -0.032,-0.0845 -0.0711,-0.0453 -0.0391,0.0391 0.0118,0.13175 0.11317,0.20587 0.23117,0.16903 0.2499,0.1683 0.18254,-0.007 z m 41.922732,-0.92341 c 1.67803,-0.3844 2.98441,-0.96857 4.22075,-1.8874 2.37123,-1.76227 3.87618,-4.31496 4.2709,-7.24427 0.0682,-0.50605 0.10024,-9.59066 0.10053,-28.49687 0,-15.26471 -0.0123,-27.76673 -0.0278,-27.78226 -0.0155,-0.0155 -2.50496,2.44874 -5.53204,5.47616 l -5.5038,5.50441 1.62495,1.64183 c 1.29741,1.3109 1.6462,1.71844 1.73044,2.0219 0.3107,1.11926 -0.19085,1.98409 -1.4543,2.5077 -0.36963,0.15318 -2.32913,0.96642 -4.35447,1.80719 -3.88717,1.61367 -4.07624,1.66813 -4.78626,1.37869 -0.26918,-0.10973 -2.47947,-2.25793 -8.23659,-8.0052 -4.390062,-4.38256 -7.950032,-8.01107 -8.052712,-8.20775 -0.37764,-0.72342 -0.3283,-0.89654 1.53531,-5.38671 0.94563,-2.2784 1.82154,-4.32014 1.94647,-4.53719 0.2697,-0.46859 1.01692,-0.88809 1.58185,-0.88809 0.66293,0 1.01797,0.24572 2.543002,1.76003 l 1.47752,1.46713 5.86531,-5.86589 c 3.22593,-3.22624 5.86531,-5.89714 5.86531,-5.93533 0,-0.10748 -55.897832,-0.0843 -57.190232,0.0238 -2.73005,0.22817 -4.90642,1.21429 -6.76959,3.06733 -1.63582,1.62693 -2.66468,3.64055 -3.03064,5.93141 -0.0665,0.41638 -0.0986,7.94194 -0.098,22.98054 5.7e-4,14.37542 -0.032,22.38179 -0.0914,22.41848 -0.0508,0.0314 -0.0924,0.005 -0.0924,-0.0594 0,-0.0641 -0.0275,-0.089 -0.061,-0.0554 -0.0336,0.0336 -10e-4,0.13277 0.0713,0.22044 0.11042,0.13301 0.1363,1.52855 0.15644,8.43507 0.0263,9.02728 0.0326,9.14273 0.58119,10.72606 1.33627,3.85653 4.76202,6.60369 8.84889,7.09604 0.33969,0.0409 14.47112,0.067 31.4032,0.058 28.008422,-0.0149 30.846222,-0.0303 31.457892,-0.17041 z m -55.095182,-9.39005 c -0.99289,-0.16702 -1.91057,-0.8577 -2.35709,-1.77406 -0.16595,-0.34055 -0.23129,-0.66458 -0.25929,-1.28571 -0.0344,-0.76314 -0.0146,-0.87912 0.24397,-1.43174 0.34734,-0.74226 0.84578,-1.24336 1.59027,-1.59878 1.04271,-0.49778 2.45129,-0.3373 3.36061,0.38291 0.41831,0.3313 0.88358,1.01713 1.05419,1.55393 l 0.11326,0.35631 h 10.91961 10.91961 v -3.99072 c 0,-3.27259 -0.0229,-3.99072 -0.12735,-3.99072 -0.27494,0 -1.30226,-0.59749 -1.58916,-0.92424 -1.28892,-1.468 -1.09322,-3.64123 0.43168,-4.79375 1.61558,-1.22106 3.95344,-0.62726 4.86875,1.23663 0.22756,0.46338 0.26375,0.65034 0.26052,1.34579 -0.003,0.67919 -0.0447,0.89216 -0.2611,1.339 -0.40943,0.84536 -1.19707,1.50593 -2.18405,1.8317 -0.15822,0.0522 -0.16799,0.32258 -0.16039,4.4383 0.007,4.01543 -0.006,4.3978 -0.15504,4.56296 -0.15847,0.17511 -0.48915,0.18028 -11.53775,0.18028 h -11.37461 l -0.20315,0.55716 c -0.38184,1.04724 -1.28448,1.79049 -2.42898,2.00007 -0.31009,0.0568 -0.58802,0.0982 -0.61761,0.0921 -0.0296,-0.006 -0.2577,-0.0455 -0.5069,-0.0874 z m 1.60423,-1.54048 c 0.6733,-0.452 0.90679,-0.91051 0.86885,-1.70621 -0.025,-0.52453 -0.0803,-0.70816 -0.31256,-1.0379 -0.41868,-0.59442 -0.99078,-0.86639 -1.72923,-0.82206 -0.73122,0.0439 -1.27868,0.39068 -1.61736,1.02446 -0.188,0.35181 -0.22219,0.53246 -0.19295,1.01948 0.0655,1.09109 0.86518,1.83104 1.97884,1.83104 0.45651,0 0.61869,-0.0499 1.00441,-0.30881 z m 25.68601,-11.73673 c 1.27122,-0.78519 1.17047,-2.68709 -0.17857,-3.37101 -0.83217,-0.42188 -1.55793,-0.31201 -2.23408,0.33819 -1.69119,1.62631 0.41117,4.26908 2.41265,3.03282 z m -27.88234,5.70678 c -0.84895,-0.3414 -1.65454,-1.15327 -1.89446,-1.90919 l -0.0662,-0.20859 h -3.02725 -3.02726 l -0.19693,-0.25036 c -0.196,-0.24917 -0.19693,-0.29173 -0.19693,-9.03095 v -8.7806 l 0.23323,-0.23322 c 0.27518,-0.27519 0.52437,-0.29594 0.80371,-0.0669 l 0.20283,0.16628 0.0215,8.45653 0.0215,8.45653 2.54171,0.0253 c 2.48516,0.0248 2.54171,0.0211 2.54171,-0.16435 0,-0.10432 0.0715,-0.37225 0.1588,-0.59541 0.52023,-1.32918 1.60734,-2.07975 3.02428,-2.08804 0.93679,-0.005 1.62974,0.27562 2.27834,0.92422 0.65283,0.65283 0.93645,1.34779 0.92983,2.27835 -0.01,1.41189 -0.76675,2.50494 -2.09364,3.02427 -0.5275,0.20646 -1.73694,0.20441 -2.25474,-0.004 z m 2.05168,-1.29179 c 0.25701,-0.13454 0.53805,-0.3956 0.72757,-0.67586 0.25899,-0.38299 0.30847,-0.54305 0.30672,-0.99226 -0.005,-1.28182 -0.88196,-2.09256 -2.14978,-1.98742 -2.01596,0.16718 -2.38505,3.01438 -0.48938,3.7751 0.41757,0.16756 1.16234,0.11208 1.60487,-0.11956 z m 9.82334,1.18356 c -0.71937,-0.34032 -1.38596,-1.0612 -1.66478,-1.80036 -0.16577,-0.43945 -0.19655,-0.68527 -0.16304,-1.30188 0.0351,-0.64549 0.088,-0.83897 0.3509,-1.28274 0.17027,-0.28742 0.40168,-0.62268 0.51425,-0.74501 0.32975,-0.35837 1.00497,-0.77672 1.37868,-0.8542 l 0.34626,-0.0718 0.0268,-1.11236 c 0.0297,-1.23545 -0.0435,-1.36551 -0.44064,-0.78236 -0.12311,0.18078 -0.42242,0.48976 -0.66512,0.6866 -0.24271,0.19685 -0.45748,0.40139 -0.47726,0.45455 -0.0753,0.20222 -3.25393,3.28114 -3.54951,3.43814 -0.39184,0.20813 -1.25241,0.21025 -1.65012,0.004 -0.96653,-0.50108 -1.31099,-1.63553 -0.79811,-2.62852 0.25634,-0.49631 0.93648,-1.13068 1.03731,-0.96753 0.0553,0.0894 0.0989,0.0964 0.14425,0.0231 0.0358,-0.0578 0.0194,-0.10516 -0.0364,-0.10516 -0.0661,0 -0.0601,-0.0661 0.0172,-0.19003 0.0653,-0.10452 0.15368,-0.19004 0.19645,-0.19004 0.0428,0 0.0473,0.0494 0.01,0.1097 -0.0423,0.0685 -0.026,0.0839 0.0435,0.0409 0.0612,-0.0378 0.0903,-0.10259 0.0648,-0.14395 -0.0606,-0.0981 0.46487,-0.62301 0.62931,-0.62862 0.0697,-0.002 0.11751,-0.0513 0.10629,-0.10871 -0.0112,-0.0574 0.13229,-0.24788 0.31891,-0.42326 0.18662,-0.17537 0.40959,-0.39654 0.49549,-0.49148 0.0859,-0.0949 0.45132,-0.47976 0.81205,-0.85516 l 0.65587,-0.68254 -4.36154,-0.0231 c -4.31283,-0.0228 -4.3634,-0.0253 -4.52783,-0.22431 -0.22023,-0.26651 -0.21055,-0.61099 0.0238,-0.84529 0.18519,-0.18519 0.31673,-0.19004 5.15416,-0.19004 h 4.96411 l 3.11013,-3.10905 3.11013,-3.10906 -1.04081,-1.05492 c -0.57244,-0.5802 -1.10592,-1.21075 -1.1855,-1.40121 -0.19418,-0.46475 -0.17923,-1.07742 0.0376,-1.54011 0.25244,-0.53871 15.59538,-15.85097 16.08637,-16.05421 0.46666,-0.19316 0.98515,-0.18179 1.45207,0.0318 0.40038,0.18321 5.437422,5.17088 5.392222,5.33938 -0.0131,0.0487 0.0165,0.0779 0.0656,0.0648 0.0491,-0.0131 0.46096,0.33686 0.91513,0.77762 1.11332,1.08043 1.32988,1.58787 1.0773,2.52423 -0.0883,0.32755 -1.18123,1.46127 -7.909652,8.20528 -5.35882,5.37124 -7.92632,7.88101 -8.1872,8.00312 -0.46282,0.21663 -1.07552,0.23149 -1.54011,0.0374 -0.19046,-0.0796 -0.82127,-0.61332 -1.4018,-1.18609 l -1.05551,-1.04141 -2.96594,2.96747 -2.96594,2.96747 v 1.68228 1.68227 l 0.33698,0.0931 c 1.82506,0.50392 2.81966,2.69651 2.00917,4.4292 -0.33978,0.7264 -1.04442,1.39868 -1.73797,1.65818 -0.80451,0.301 -1.82509,0.27059 -2.55816,-0.0762 z m 2.11802,-1.11141 c 1.21575,-0.50798 1.59306,-2.02219 0.75671,-3.03683 -0.50466,-0.61224 -1.49549,-0.8875 -2.21285,-0.61476 -0.17945,0.0682 -0.29306,0.0657 -0.38243,-0.008 -0.10042,-0.0833 -0.11912,-0.0639 -0.089,0.0926 0.0238,0.12356 -0.0278,0.2334 -0.13704,0.29187 -0.26746,0.14314 -0.6689,1.02823 -0.6689,1.47479 0,0.22778 0.10079,0.59253 0.24207,0.87605 0.4633,0.92971 1.53103,1.32602 2.49143,0.92475 z m -5.77525,-2.98576 c 0.11107,-0.0702 0.0958,-0.0859 -0.0713,-0.0733 -0.11693,0.009 -0.21259,0.0497 -0.21259,0.0908 0,0.0992 0.11012,0.0924 0.28385,-0.0175 z m 0.18202,-0.32422 c 0.0832,-0.1002 0.0793,-0.14287 -0.0164,-0.17959 -0.0746,-0.0286 -0.131,0.0246 -0.13905,0.13143 -0.0161,0.21415 0.0108,0.2225 0.15549,0.0482 z m -0.94096,-0.0586 c 0,-0.0523 -0.0453,-0.095 -0.10063,-0.095 -0.0553,0 -0.0742,0.0428 -0.0419,0.095 0.0323,0.0523 0.0776,0.095 0.10063,0.095 0.023,0 0.0419,-0.0428 0.0419,-0.095 z m 3.51563,-0.24423 c 0,-0.0261 -0.0855,-0.002 -0.19003,0.0542 -0.10452,0.0559 -0.19004,0.12308 -0.19004,0.14921 0,0.0261 0.0855,0.002 0.19004,-0.0542 0.10452,-0.0559 0.19003,-0.12308 0.19003,-0.14921 z m 0.22629,-0.2833 c 0.0324,-0.0846 0.0165,-0.1227 -0.0373,-0.0894 -0.0517,0.0319 -0.0939,0.0983 -0.0939,0.14746 0,0.13667 0.0681,0.10656 0.13128,-0.0581 z m -2.41168,-0.55501 c 0,-0.0205 -0.0664,-0.0628 -0.14746,-0.0939 -0.0846,-0.0324 -0.1227,-0.0165 -0.0894,0.0374 0.0558,0.0903 0.23687,0.13354 0.23687,0.0566 z m 3.47674,-2.78872 c -0.0659,-0.0659 -0.24616,0.068 -0.24616,0.18283 0,0.063 0.0545,0.0558 0.14483,-0.0191 0.0797,-0.0661 0.12525,-0.13976 0.10133,-0.16368 z m 0.0345,-0.50767 c -0.0583,-0.109 -0.13007,-0.17417 -0.15941,-0.14483 -0.0293,0.0294 7.6e-4,0.11852 0.0668,0.19818 0.17083,0.20583 0.21703,0.1792 0.0926,-0.0533 z m -3.67852,-0.40535 c 0.0578,0.0357 0.0741,0.0183 0.0378,-0.0404 -0.0351,-0.0568 0.032,-0.17026 0.14899,-0.25222 0.11702,-0.082 0.17394,-0.14903 0.12648,-0.14903 -0.12778,0 -0.52729,0.39704 -0.5186,0.5154 0.004,0.0562 0.0292,0.0485 0.0556,-0.0171 0.0265,-0.0657 0.0938,-0.0911 0.1497,-0.0566 z m 17.04523,-11.09603 c 2.65323,-2.652 2.67378,-2.67561 2.62777,-3.01861 -0.15315,-1.14179 0.77221,-2.14266 1.93135,-2.08896 l 0.5155,0.0239 0.9246,-0.91094 0.9246,-0.91095 -0.0319,-0.51964 c -0.0706,-1.15203 0.89337,-2.07338 2.0347,-1.94473 0.32506,0.0366 0.44749,0.008 0.57742,-0.1357 0.15938,-0.17611 0.10322,-0.24392 -1.68161,-2.03052 l -1.84649,-1.84831 -1.10978,1.10688 c -1.00721,1.00459 -1.10172,1.12808 -1.02261,1.33617 0.24065,0.63294 -0.0221,1.58745 -0.56201,2.04176 -0.4329,0.36427 -0.89845,0.48863 -1.57326,0.42028 l -0.58056,-0.0588 -1.01626,1.0225 -1.01625,1.02249 0.0703,0.52107 c 0.0902,0.66824 0.008,1.05209 -0.31699,1.47804 -0.49175,0.64471 -1.26459,0.92033 -2.00554,0.71524 l -0.37115,-0.10273 -1.44917,1.44869 -1.44916,1.44869 1.82683,1.82856 c 1.00475,1.0057 1.84901,1.82855 1.87612,1.82855 0.0271,0 1.25267,-1.20281 2.72345,-2.67291 z M 102.3141,156.28099 c 0,-0.0197 -0.0748,-0.0946 -0.16628,-0.16628 -0.15071,-0.11819 -0.15407,-0.11483 -0.0359,0.0359 0.12413,0.15828 0.20216,0.20861 0.20216,0.13041 z m -2.422942,-0.62925 c 0.0323,-0.0523 0.0134,-0.095 -0.0419,-0.095 -0.0554,0 -0.10063,0.0428 -0.10063,0.095 0,0.0523 0.0189,0.095 0.0419,0.095 0.0231,0 0.0683,-0.0428 0.10063,-0.095 z m -1.01785,-1.81832 c -0.0237,-0.0712 -0.0668,-0.0281 -0.10039,0.10039 -0.0413,0.15805 -0.029,0.19515 0.0416,0.12464 0.0552,-0.0552 0.0817,-0.15648 0.0588,-0.22503 z m 30.378172,30.70356 c -0.0323,-0.0523 -0.10965,-0.0944 -0.17189,-0.0936 -0.068,9.5e-4 -0.0563,0.0382 0.0294,0.0936 0.18254,0.11796 0.21543,0.11796 0.14253,0 z m 1.33024,-1.42526 c -0.0323,-0.0523 -0.10965,-0.0944 -0.17189,-0.0936 -0.068,8.6e-4 -0.0563,0.0382 0.0294,0.0936 0.18254,0.11796 0.21543,0.11796 0.14253,0 z m -1.0861,-0.42055 c -0.1191,-0.12678 -0.18999,-0.27347 -0.15753,-0.32599 0.0325,-0.0525 0.0193,-0.12003 -0.0292,-0.15003 -0.16978,-0.10493 -0.0334,0.43086 0.1438,0.56503 0.26863,0.2034 0.28528,0.16891 0.043,-0.089 z m 0.91784,0.17311 c -0.0316,-0.0316 -0.11353,-0.035 -0.18212,-0.007 -0.0758,0.0303 -0.0533,0.0529 0.0574,0.0574 0.10016,0.004 0.15629,-0.0183 0.12471,-0.0499 z M 44.353598,181.8821 c 0,-0.0492 -0.0356,-0.11143 -0.0792,-0.13835 -0.0436,-0.0269 -0.0792,0.0133 -0.0792,0.0894 0,0.0761 0.0356,0.13835 0.0792,0.13835 0.0436,0 0.0792,-0.0402 0.0792,-0.0894 z m 0.33507,-0.74739 c -0.0293,-0.0293 -0.10592,-6e-5 -0.17038,0.0649 -0.0931,0.0938 -0.0822,0.10476 0.0532,0.0532 0.0937,-0.0357 0.14645,-0.0888 0.11719,-0.11806 z m 85.313162,-0.003 c 0.0269,-0.0436 -0.0133,-0.0792 -0.0894,-0.0792 -0.0761,0 -0.13835,0.0356 -0.13835,0.0792 0,0.0436 0.0402,0.0792 0.0894,0.0792 0.0492,0 0.11143,-0.0356 0.13835,-0.0792 z m 0.7917,-0.45331 c -0.0316,-0.0316 -0.11353,-0.035 -0.18212,-0.008 -0.0758,0.0303 -0.0533,0.0529 0.0574,0.0574 0.10016,0.004 0.15628,-0.0183 0.12471,-0.0499 z m -85.002552,-0.67898 c 0.11818,-0.1507 0.11482,-0.15406 -0.0359,-0.0359 -0.0915,0.0717 -0.16628,0.14655 -0.16628,0.16628 0,0.0782 0.078,0.0279 0.20215,-0.13041 z m 85.100662,-0.84917 c -0.0908,-0.0238 -0.26188,-0.0247 -0.38007,-0.002 -0.1182,0.0227 -0.0439,0.0422 0.16517,0.0432 0.20903,0.001 0.30573,-0.0175 0.2149,-0.0413 z m 0.56701,-0.65725 c -0.0316,-0.0316 -0.11353,-0.0349 -0.18212,-0.007 -0.0758,0.0303 -0.0533,0.0528 0.0574,0.0574 0.10016,0.004 0.15628,-0.0183 0.12471,-0.0499 z M 46.206468,155.17665 c 0.0323,-0.0523 0.0134,-0.095 -0.0419,-0.095 -0.0553,0 -0.10062,0.0428 -0.10062,0.095 0,0.0523 0.0189,0.095 0.0419,0.095 0.023,0 0.0683,-0.0428 0.10062,-0.095 z m 83.890412,-0.55426 c 0.0269,-0.0435 -0.0114,-0.0792 -0.0852,-0.0792 -0.0738,0 -0.11214,0.0356 -0.0852,0.0792 0.0269,0.0436 0.0653,0.0792 0.0852,0.0792 0.02,0 0.0583,-0.0356 0.0852,-0.0792 z m -84.603042,-0.11086 c 0.0784,-0.0507 0.0998,-0.0921 0.0475,-0.0921 -0.0523,0 -0.15915,0.0414 -0.23754,0.0921 -0.0784,0.0507 -0.0998,0.0921 -0.0475,0.0921 0.0523,0 0.15915,-0.0414 0.23754,-0.0921 z m 59.543712,-0.3088 c -0.0264,-0.0653 -0.0479,-0.0119 -0.0479,0.11877 0,0.13065 0.0216,0.1841 0.0479,0.11877 0.0264,-0.0653 0.0264,-0.17222 0,-0.23754 z m 0.47706,-0.27912 c -0.0303,-0.0758 -0.0528,-0.0533 -0.0574,0.0574 -0.004,0.10016 0.0183,0.15628 0.0499,0.12471 0.0316,-0.0316 0.035,-0.11352 0.007,-0.18212 z m -60.103572,-0.386 c 0.10329,-0.19386 0.0992,-0.20163 -0.0442,-0.0834 -0.087,0.0717 -0.15808,0.16793 -0.15808,0.21379 0,0.14514 0.0844,0.0907 0.20225,-0.1304 z m 86.421362,-0.95017 c -0.0264,-0.0653 -0.0479,-0.0119 -0.0479,0.11877 0,0.13065 0.0216,0.18409 0.0479,0.11877 0.0264,-0.0653 0.0264,-0.17222 0,-0.23754 z m -26.9528,-0.14812 c 0,-0.0423 -0.0648,-0.15986 -0.14407,-0.2613 -0.13359,-0.17103 -0.13594,-0.16544 -0.0323,0.0769 0.11188,0.26143 0.17633,0.32885 0.17633,0.18444 z m 26.79486,-0.14906 c 0,-0.0197 -0.0603,-0.0859 -0.13407,-0.14714 -0.10266,-0.0852 -0.15062,-0.0845 -0.20472,0.003 -0.0432,0.0699 -0.0306,0.0895 0.0325,0.0506 0.0567,-0.0351 0.12999,-0.0203 0.16281,0.0328 0.0587,0.0951 0.14349,0.13089 0.14349,0.0607 z m -85.325462,-0.29107 c 0,-0.023 -0.0428,-0.0683 -0.095,-0.10063 -0.0523,-0.0323 -0.095,-0.0134 -0.095,0.0419 0,0.0553 0.0428,0.10063 0.095,0.10063 0.0523,0 0.095,-0.0189 0.095,-0.0419 z m 57.437902,-0.90828 c 0.0323,-0.0523 0.016,-0.095 -0.0363,-0.095 -0.0523,0 -0.12144,0.0428 -0.15374,0.095 -0.0323,0.0523 -0.016,0.095 0.0363,0.095 0.0523,0 0.12145,-0.0428 0.15374,-0.095 z m -6.6e-4,-0.56901 c 0.0333,-0.0539 -0.005,-0.0698 -0.0894,-0.0373 -0.16461,0.0632 -0.19473,0.13127 -0.058,0.13127 0.0492,0 0.11553,-0.0423 0.14746,-0.0939 z M 76.918808,124.80876 c -0.0316,-0.0316 -0.11353,-0.0349 -0.18212,-0.007 -0.0758,0.0303 -0.0533,0.0528 0.0574,0.0574 0.10016,0.004 0.15628,-0.0183 0.12471,-0.0499 z m -1.74681,-0.27926 c -0.0309,-0.0806 -0.0766,-0.12624 -0.10155,-0.10134 -0.0249,0.0249 -0.0171,0.0909 0.0173,0.14663 0.0937,0.15159 0.14846,0.12214 0.0842,-0.0453 z m 26.541922,-0.34627 c -0.0303,-0.0758 -0.0528,-0.0533 -0.0574,0.0574 -0.004,0.10017 0.0183,0.15629 0.0499,0.12471 0.0316,-0.0316 0.0349,-0.11352 0.007,-0.18211 z m -28.703522,0.003 c 0.042,-0.068 0.0261,-0.0839 -0.0419,-0.0419 -0.0603,0.0373 -0.1097,0.0154 -0.1097,-0.0487 0,-0.0641 -0.0257,-0.0908 -0.057,-0.0594 -0.0543,0.0543 0.0283,0.2597 0.10453,0.2597 0.02,0 0.0668,-0.0494 0.10409,-0.1097 z m 4.12418,-0.0328 c 0,-0.0784 -0.0414,-0.14252 -0.092,-0.14252 -0.0506,0 -0.0674,0.0641 -0.0373,0.14252 0.0301,0.0784 0.0715,0.14253 0.092,0.14253 0.0205,0 0.0374,-0.0641 0.0374,-0.14253 z m -2.56547,-0.33256 c -0.0784,-0.0507 -0.20666,-0.0897 -0.28505,-0.0869 -0.094,0.003 -0.0778,0.033 0.0475,0.0869 0.26121,0.11225 0.41123,0.11225 0.23754,0 z m 29.912072,-0.90518 c -0.0292,-0.0293 -0.0824,0.0235 -0.11806,0.11719 -0.0516,0.13542 -0.0406,0.14633 0.0532,0.0532 0.0649,-0.0644 0.0941,-0.14112 0.0649,-0.17038 z m -0.55175,0.11226 c 0,-0.018 -0.0962,-0.11423 -0.21379,-0.21379 l -0.21379,-0.181 0.18101,0.21379 c 0.1701,0.2009 0.24657,0.25704 0.24657,0.181 z m 0.63939,-0.49971 c -0.0316,-0.0316 -0.11353,-0.035 -0.18212,-0.008 -0.0758,0.0303 -0.0533,0.0529 0.0574,0.0574 0.10016,0.004 0.15628,-0.0183 0.12471,-0.0499 z m 0.69085,-0.32266 c 0,-0.0523 -0.0453,-0.095 -0.10062,-0.095 -0.0554,0 -0.0742,0.0428 -0.0419,0.095 0.0323,0.0523 0.0776,0.095 0.10063,0.095 0.0231,0 0.0419,-0.0428 0.0419,-0.095 z m -31.378332,-0.0653 c -0.0908,-0.0238 -0.26187,-0.0247 -0.38007,-0.002 -0.11819,0.0227 -0.0439,0.0422 0.16518,0.0432 0.20903,0.001 0.30574,-0.0175 0.21489,-0.0413 z"
       id="path804"
       sodipodi:nodetypes="sssscscsscscssssscscssssssssssscssssssssssccsscscscscccsscsccssscsscssssssssssscsscsssssccscssssssssssscccssssscssccscsscsssssssssssssscscccsscssccccsccsssccsssssscssssscssssscsssscscsccsssscsssscccssssssssssssscccccssscccsscssssccscsssssssssssssscscsccsccsssssssssssccsscssscsccssscccsscscsssscccscscccssssscssscssscsssssscsssssssssscssscccccssssssssssssssscccccssssscssccccccccssscsssssssssssscsccsccssssssscssscsssssccssscssssssssccsccccccccscccccsccssscssscsssccsccssssssssscsscccccsssssscsscc"
       inkscape:export-filename="path804.svg"
       inkscape:export-xdpi="96"
       inkscape:export-ydpi="96" /></g></svg>
