<?xml version="1.0" encoding="UTF-8" standalone="no"?>
<!-- Created with Inkscape (http://www.inkscape.org/) -->

<svg
   width="195.50172mm"
   height="195.54655mm"
   viewBox="0 0 195.50173 195.54656"
   version="1.1"
   id="svg5"
   xml:space="preserve"
   inkscape:export-filename="milling.svg"
   inkscape:export-xdpi="96"
   inkscape:export-ydpi="96"
   xmlns:inkscape="http://www.inkscape.org/namespaces/inkscape"
   xmlns:sodipodi="http://sodipodi.sourceforge.net/DTD/sodipodi-0.dtd"
   xmlns="http://www.w3.org/2000/svg"
   xmlns:svg="http://www.w3.org/2000/svg"><sodipodi:namedview
     id="namedview7"
     pagecolor="#505050"
     bordercolor="#eeeeee"
     borderopacity="1"
     inkscape:showpageshadow="0"
     inkscape:pageopacity="0"
     inkscape:pagecheckerboard="0"
     inkscape:deskcolor="#505050"
     inkscape:document-units="mm"
     showgrid="false" /><defs
     id="defs2" /><g
     inkscape:label="Layer 1"
     inkscape:groupmode="layer"
     id="layer1"
     transform="translate(9.0556802,-31.248813)"><path
       style="fill:#ffffff;stroke-width:0.352778"
       d="m 26.102321,217.72051 c -0.492287,-0.49229 -0.554366,-3.05397 -0.554366,-22.87588 v -22.32152 l 0.64514,-0.58384 0.645139,-0.58385 h 25.813195 25.813196 v -11.99444 -11.99445 h -8.265079 c -7.043339,0 -8.347026,-0.0819 -8.819445,-0.55436 -0.484717,-0.48472 -0.554366,-2.25604 -0.554366,-14.0987 v -13.54434 l 0.682364,-0.36519 c 0.375299,-0.20085 1.883424,-0.36519 3.351389,-0.36519 h 2.669025 v -4.93889 -4.93888 h -3.649489 c -3.080125,0 -3.740073,-0.1001 -4.230096,-0.64157 L 59.068323,107.27785 58.97689,89.133999 58.885457,70.990143 46.278869,70.897497 33.672276,70.804854 33.126183,69.971406 C 32.651838,69.247467 32.593214,67.28519 32.679994,55.036622 32.760204,43.715299 32.875351,40.820351 33.264067,40.352296 l 0.48417,-0.582988 h 53.377443 53.37744 l 0.55437,0.554365 c 0.48604,0.48604 0.55436,2.346965 0.55436,15.09889 0,10.842038 -0.10776,14.652288 -0.42333,14.967858 -0.31349,0.313493 -3.70025,0.423333 -13.05278,0.423333 H 115.5063 v 18.08956 c 0,15.801506 -0.0695,18.188726 -0.54917,18.873606 l -0.54918,0.78406 h -3.68416 -3.68416 v 4.93888 4.93889 h 2.79702 c 2.07238,0 2.94065,0.14363 3.35139,0.55437 0.4844,0.4844 0.55437,2.23616 0.55437,13.88005 v 13.32568 l -0.64514,0.58384 c -0.56124,0.50791 -1.70823,0.58384 -8.81945,0.58384 h -8.174302 v 22.75417 22.75417 h 27.085392 c 23.94344,0 27.17635,0.0637 27.86945,0.54917 l 0.78405,0.54917 v 11.56699 11.56698 l -0.64514,0.58385 -0.64514,0.58384 H 88.604408 26.656686 Z m 121.859529,-5.97203 v -2.64583 H 88.695181 29.428511 v 2.64583 2.64584 h 59.26667 59.266669 z m 0,-10.75972 v -4.23333 H 113.8956 c -22.808092,0 -34.291753,-0.12069 -34.748611,-0.36519 l -0.682364,-0.3652 V 185.63051 175.23598 H 53.946568 29.428511 v 14.99306 14.99305 h 59.26667 59.266669 z M 92.222958,187.75959 c 0,-2.8134 -0.10438,-5.11528 -0.23195,-5.11528 -0.44052,0 -9.645827,9.33575 -9.645827,9.78251 0,0.34088 1.181336,0.44805 4.938889,0.44805 h 4.938888 z m -4.750131,-6.34313 4.750131,-4.75563 v -4.67645 -4.67645 l -4.938888,4.92944 -4.938889,4.92944 v 4.50264 c 0,2.47645 0.08494,4.50264 0.188757,4.50264 0.103816,0 2.326316,-2.14003 4.938889,-4.75563 z m 4.750131,-24.51547 v -4.76251 l -4.938888,4.92944 -4.938889,4.92944 v 4.7625 4.7625 l 4.938889,-4.92944 4.938888,-4.92943 z m -4.797505,-5.56571 1.728883,-1.85208 h -3.404578 -3.404577 v 3.40125 3.40124 l 1.675694,-1.54916 c 0.921632,-0.85204 2.453694,-2.3826 3.404578,-3.40125 z m -14.57589,-14.1993 c -0.03963,-7.16382 0.163823,-7.9375 2.087284,-7.9375 1.923461,0 2.126912,0.77368 2.087284,7.9375 l -0.03415,6.17361 4.088713,0.0994 4.088712,0.0994 v -6.45909 c 0,-5.27502 0.100672,-6.60282 0.549169,-7.24314 0.620049,-0.88524 2.304292,-1.06739 2.927403,-0.31659 0.243826,0.2938 0.423704,2.94784 0.484166,7.14375 l 0.0962,6.67629 4.145144,0.0994 4.14514,0.0994 v -6.598 c 0,-5.64445 0.0844,-6.69124 0.58384,-7.24314 0.68032,-0.75174 2.332102,-0.8532 2.892732,-0.17768 0.24383,0.2938 0.4237,2.94784 0.48417,7.14375 l 0.0962,6.67629 4.14514,0.0994 4.14514,0.0994 V 132.91384 122.31931 H 87.28407 64.706291 v 10.59453 10.59453 l 4.088712,-0.0994 4.088713,-0.0994 z m 30.309507,-24.69445 v -3.88055 h -15.875 -15.875001 v 3.88055 3.88056 h 15.875001 15.875 z m 8.3819,-24.606247 -0.0916,-16.84514 -24.253474,-0.09062 -24.253474,-0.09063 V 87.744658 104.68042 H 87.287512 111.6326 Z M 137.7313,55.290331 V 43.647464 l -50.501508,0.0894 -50.501507,0.08939 0.02713,1.499305 c 0.01492,0.824619 0.03936,6.023681 0.05428,11.553473 L 36.836845,66.9332 H 87.28407 137.7313 Z M 111.62574,187.23042 c -0.72361,-0.72361 -0.89447,-1.6384 -0.43557,-2.33202 0.38499,-0.5819 1.48885,-1.08753 11.86411,-5.4344 7.96394,-3.33661 9.6353,-3.92354 10.40352,-3.65337 0.97952,0.34447 1.284,1.10766 0.95883,2.40327 -0.16936,0.67474 -1.9161,1.52891 -10.76424,5.26376 -5.80915,2.45208 -10.73286,4.45832 -10.94159,4.45832 -0.20873,0 -0.697,-0.3175 -1.08506,-0.70556 z m -11.976742,-0.50783 c -0.23181,-0.27931 -0.37031,-0.94769 -0.30778,-1.48531 0.11544,-0.99253 0.950702,-1.74058 23.773962,-21.29159 7.85743,-6.73087 7.06496,-6.17415 8.11048,-5.69778 1.03013,0.46936 1.61442,1.74459 1.17984,2.57505 -0.16694,0.31903 -2.87558,2.77965 -6.0192,5.46806 -3.14362,2.68841 -6.91733,5.93021 -8.38603,7.20399 -14.16508,12.28523 -15.95256,13.73541 -16.93009,13.73541 -0.54984,0 -1.189382,-0.22852 -1.421182,-0.50783 z"
       id="path302"
       inkscape:export-filename="milling.svg"
       inkscape:export-xdpi="96"
       inkscape:export-ydpi="96" /></g></svg>
