<?xml version="1.0" encoding="UTF-8" standalone="no"?>
<!-- Created with Inkscape (http://www.inkscape.org/) -->

<svg
   version="1.1"
   id="svg1"
   width="240"
   height="240"
   viewBox="0 0 240 240"
   sodipodi:docname="onshape-logo.png"
   xmlns:inkscape="http://www.inkscape.org/namespaces/inkscape"
   xmlns:sodipodi="http://sodipodi.sourceforge.net/DTD/sodipodi-0.dtd"
   xmlns="http://www.w3.org/2000/svg"
   xmlns:svg="http://www.w3.org/2000/svg">
  <defs
     id="defs1" />
  <sodipodi:namedview
     id="namedview1"
     pagecolor="#ffffff"
     bordercolor="#000000"
     borderopacity="0.25"
     inkscape:showpageshadow="2"
     inkscape:pageopacity="0.0"
     inkscape:pagecheckerboard="0"
     inkscape:deskcolor="#d1d1d1" />
  <g
     inkscape:groupmode="layer"
     inkscape:label="Image"
     id="g1">
    <g
       id="g20">
      <path
         style="fill:none"
         d="M 0,120 V 0 H 120 240 V 120 240 H 120 0 Z m 143.54287,103.56464 21.1238,-12.43536 0.36545,-22.20522 0.36545,-22.20521 -22.10758,13.30724 c -12.15917,7.31898 -22.60477,13.30724 -23.21244,13.30724 -0.60767,0 -23.073708,-12.56063 -49.924534,-27.91251 L 21.333333,137.50831 v 21.11554 21.11554 l 49,28.09744 c 26.95,15.45359 49.694297,28.11223 50.542877,28.13031 0.84857,0.0181 11.04857,-5.56305 22.66666,-12.4025 z m 60.13788,-35.45429 16.34742,-9.64945 -0.34742,-57.3731 -0.34742,-57.373094 -22.54899,-13.136093 C 184.3824,43.353762 173.8824,37.617695 173.45101,37.831797 c -0.43139,0.214102 -9.02671,5.117172 -19.1007,10.895712 l -18.31637,10.506435 1.20045,1.200447 c 0.66025,0.660245 10.70261,6.775367 22.31636,13.589158 l 21.11592,12.388712 0.3476,57.604529 0.34761,57.60453 2.98572,-1.93076 c 1.64216,-1.06192 10.34207,-6.27301 19.33315,-11.58021 z m -73.61659,-18.44368 8.55143,-5 0.0255,-9.59914 0.0255,-9.59914 -9.13342,5.2658 C 124.50987,153.63039 119.9888,156 119.48642,156 118.98404,156 109.35622,150.60502 98.091266,144.01115 86.82631,137.41728 76.647383,131.65308 75.47143,131.20183 l -2.138097,-0.82047 0.02999,9.14265 0.02999,9.14266 22.303345,12.96462 c 12.266832,7.13054 23.093702,12.98054 24.059702,13 0.966,0.0195 5.60451,-2.21462 10.3078,-4.96462 z m 35.25335,-47.6411 -0.0158,-26.692237 -8.31751,-4.666666 c -4.57463,-2.566667 -8.96972,-4.841828 -9.76686,-5.055915 -1.52593,-0.409813 -16.55296,7.766461 -16.54745,9.003536 0.002,0.395475 4.20177,3.080597 9.33334,5.966942 l 9.33012,5.24789 v 25.84236 25.84237 l 8,-4.39803 8,-4.39802 z M 57.637876,113.03001 58,87.393347 107.65851,58.030007 C 134.97069,41.88017 157.30307,28.366667 157.28602,28 157.22834,26.75994 122.01739,7.3333333 119.82744,7.3333333 c -1.19491,0 -23.8393,12.5999997 -50.320865,27.9999997 l -48.1483,28 -0.01247,27.53334 -0.01247,27.533337 17,10.02026 c 9.35,5.51114 17.437045,10.07113 17.97121,10.13332 l 0.97121,0.11308 z M 113.33333,92.54796 c 12.1,-7.039286 22.19975,-12.992028 22.44388,-13.228315 0.61868,-0.59881 -14.20539,-9.986312 -15.76967,-9.986312 -0.70071,0 -11.33906,5.918644 -23.64078,13.152542 L 74,95.638417 l -0.38065,11.199163 -0.38065,11.19917 8.38065,4.83751 8.38065,4.8375 0.666667,-11.18255 0.666666,-11.18255 z"
         id="path23" />
      <path
         style="fill:#41c33a"
         d="m 70.333333,207.83683 -49,-28.09744 v -21.11554 -21.11554 l 48.819683,27.91251 c 26.850826,15.35188 49.316864,27.91251 49.924534,27.91251 0.60767,0 11.05327,-5.98826 23.21244,-13.30724 l 22.10758,-13.30724 -0.36545,22.20521 -0.36545,22.20522 -21.1238,12.43536 c -11.61809,6.83945 -21.81809,12.42057 -22.66666,12.4025 -0.84858,-0.0181 -23.592877,-12.67672 -50.542877,-28.13031 z M 181.01427,144.01679 180.66667,86.412261 159.55075,74.023549 C 147.937,67.209758 137.89464,61.094636 137.23439,60.434391 l -1.20045,-1.200447 18.31637,-10.506435 c 10.07399,-5.77854 18.66931,-10.68161 19.1007,-10.895712 0.43139,-0.214102 10.93139,5.521965 23.33333,12.746816 l 22.54899,13.136093 0.34742,57.373094 0.34742,57.3731 -16.34742,9.64945 c -8.99108,5.3072 -17.69099,10.51829 -19.33315,11.58021 l -2.98572,1.93076 z m -142.680937,-15.59652 -17,-10.02026 0.01247,-27.533337 0.01247,-27.53334 48.1483,-28 c 26.481565,-15.4 49.125957,-27.9999997 50.320867,-27.9999997 2.18995,0 37.4009,19.4266067 37.45858,20.6666667 0.017,0.366667 -22.31533,13.88017 -49.62751,30.030007 L 58,87.393347 l -0.362124,25.636663 -0.362123,25.63666 -0.97121,-0.11308 c -0.534165,-0.0622 -8.62121,-4.62218 -17.97121,-10.13332 z"
         id="path22" />
      <path
         style="fill:#646464"
         d="m 95.696655,161.63129 -22.303345,-12.96462 -0.02999,-9.14266 -0.02999,-9.14265 2.138097,0.82047 c 1.175953,0.45125 11.35488,6.21545 22.619836,12.80932 C 109.35622,150.60502 118.98404,156 119.48642,156 c 0.50238,0 5.02345,-2.36961 10.04683,-5.26581 l 9.13342,-5.2658 -0.0255,9.59914 -0.0255,9.59914 -8.55143,5 c -4.70329,2.75 -9.3418,4.98408 -10.3078,4.96462 -0.966,-0.0195 -11.79287,-5.86946 -24.059705,-13 z m 53.636675,-29.95981 v -25.84236 l -9.33012,-5.24789 c -5.13157,-2.886345 -9.33157,-5.571467 -9.33334,-5.966942 -0.006,-1.237075 15.02152,-9.413349 16.54745,-9.003536 0.79714,0.214087 5.19223,2.489248 9.76686,5.055915 l 8.31751,4.666666 0.0158,26.692237 0.0158,26.69223 -8,4.39802 -8,4.39803 z M 81.61935,122.87426 73.2387,118.03675 73.61935,106.83758 74,95.638417 96.36676,82.485875 c 12.30172,-7.233898 22.94007,-13.152542 23.64078,-13.152542 1.56428,0 16.38835,9.387502 15.76967,9.986312 -0.24413,0.236287 -10.34388,6.189029 -22.44388,13.228315 L 91.333333,105.34666 90.666667,116.52921 90,127.71176 Z"
         id="path21" />
    </g>
  </g>
</svg>
