<?xml version="1.0" encoding="UTF-8" standalone="no"?>
<!-- Created with Inkscape (http://www.inkscape.org/) -->

<svg
   width="1023.9999"
   height="1023.9999"
   viewBox="0 0 270.93331 270.93331"
   version="1.1"
   id="svg1"
   xml:space="preserve"
   xmlns="http://www.w3.org/2000/svg"
   xmlns:svg="http://www.w3.org/2000/svg"><defs
     id="defs1" /><g
     id="layer1"><path
       style="fill:#1c4587;fill-opacity:1;stroke:none;stroke-width:13.079"
       d="M 93.153549,235.98826 C 106.75678,194.25193 110.90388,165.74058 108.90475,127.69855 107.67009,104.20759 104.62072,87.587681 98.519229,71.099871 l -8.63778,-23.342258 14.271691,-3.753822 c 20.51301,-5.395609 71.63028,-19.586886 107.0875,-29.729795 16.78993,-4.8030148 31.37422,-7.8854728 32.40982,-6.8498638 3.40106,3.4010688 -46.7252,93.8479778 -84.66457,152.7671478 -19.65568,30.52486 -69.621711,101.45761 -72.891751,103.47858 -1.35195,0.83577 1.82482,-11.62123 7.05941,-27.6816 z m -12.7001,-53.64348 C 72.023239,153.66041 57.025137,123.17687 40.386263,100.90905 L 27.118629,83.152697 46.817988,79.230812 c 10.834798,-2.157094 23.113771,-4.836075 27.286781,-5.953553 6.75178,-1.807917 8.2603,0.197509 13.70104,18.217767 6.58804,21.819854 7.90509,83.957244 2.18223,102.961584 -2.89098,9.60063 -3.30989,9.0686 -9.53459,-12.11183 z"
       id="path1" /></g></svg>
